<?xml version="1.0" encoding="UTF-8" standalone="no"?>
<!-- Created with Inkscape (http://www.inkscape.org/) -->

<svg
   version="1.1"
   id="svg1"
   width="214.62616"
   height="30.067993"
   viewBox="0 0 214.62616 30.067993"
   xmlns="http://www.w3.org/2000/svg"
   xmlns:svg="http://www.w3.org/2000/svg">
  <defs
     id="defs1">
    <clipPath
       clipPathUnits="userSpaceOnUse"
       id="clipPath40">
      <path
         d="M 0,1764.915 H 841.89 V 0 H 0 Z"
         transform="translate(-621.74612,-1501.7504)"
         id="path40" />
    </clipPath>
    <clipPath
       clipPathUnits="userSpaceOnUse"
       id="clipPath42">
      <path
         d="M 0,1764.915 H 841.89 V 0 H 0 Z"
         transform="translate(-652.59371,-1511.2587)"
         id="path42" />
    </clipPath>
  </defs>
  <g
     id="layer-MC0"
     transform="translate(-828.99481,-325.00214)">
    <path
       id="path39"
       d="M 0,0 2.348,1.567 4.697,0 0,-3.133 Z m 22.553,16.288 -2.349,-1.567 -2.349,1.567 4.698,3.13 z m 0,-11.904 L 11.274,-3.133 0,4.384 13.39,13.312 15.739,11.746 4.933,4.542 11.511,0.155 14.564,2.191 12.216,3.759 17.855,7.517 Z M 0,11.901 11.274,19.418 22.553,11.901 9.16,2.973 6.814,4.542 17.618,11.746 11.042,16.13 7.985,14.094 10.337,12.528 4.697,8.769 Z"
       style="fill:#465eff;fill-opacity:1;fill-rule:nonzero;stroke:none"
       transform="matrix(1.3333333,0,0,-1.3333333,828.9948,350.8928)"
       clip-path="url(#clipPath40)" />
    <path
       id="path41"
       d="M 0,0 V 3.84 H 1.36 C 2.593,3.84 3.463,3.028 3.463,1.925 3.463,0.468 2.352,0.012 1.554,0.012 H 0.28 Z m 0.756,-2.3 h 0.482 c 1.838,0 2.421,-0.811 2.421,-2.142 0,-2.105 -1.744,-2.126 -2.516,-2.126 H 0 v 4.245 z m 21.423,-6.576 v 8.204 l 3.424,-8.204 h 3.69 v 12.3 h -2.655 v -7.952 l -3.33,7.952 h -3.782 v -12.3 z m 13.052,-0.362 c 2.72,0 4.306,1.077 4.306,4.431 h -3.091 c -0.039,-0.99 -0.053,-2.555 -1.215,-2.555 -1.314,0 -1.503,0.794 -1.503,4.607 0,3.941 0.3,4.603 1.447,4.603 0.824,0 1.194,-0.625 1.194,-2.291 h 3.072 c 0.114,2.693 -1.38,4.17 -4.341,4.17 -4.412,0 -4.54,-2.805 -4.54,-6.482 0,-3.7 -0.115,-6.483 4.671,-6.483 m -24.555,0.362 0.773,2.726 h 3.318 l 0.753,-2.726 h 3.279 l -3.693,12.3 h -3.752 l -3.771,-12.3 z m 3.601,4.616 h -2.378 l 1.133,5.034 z m 30.967,-3.102 c -1.401,0 -1.583,1.39 -1.583,4.607 0,3.214 0.182,4.603 1.583,4.603 1.402,0 1.583,-1.389 1.583,-4.603 0,-3.217 -0.181,-4.607 -1.583,-4.607 m 0,-1.876 c 4.789,0 4.789,3.197 4.789,6.483 0,3.319 0,6.482 -4.789,6.482 -4.789,0 -4.789,-3.163 -4.789,-6.482 0,-3.286 0,-6.483 4.789,-6.483 m 76.261,12.662 h -3.13 V -8.877 h 3.13 z m 8.617,-12.3 v 1.86 h -3.65 v 10.44 h -3.133 v -12.3 z M 82.817,-8.88 c 1.478,0 5.136,0.168 5.136,3.975 0,2.062 -0.644,3.5 -3.107,3.811 1.889,0.374 2.832,1.625 2.832,3.35 0,3.208 -2.189,3.893 -4.837,3.893 H 76.669 V -8.88 Z m -2.357,8.856 v 3.842 h 1.83 c 1.005,0 1.715,-0.811 1.715,-1.914 0,-1.458 -0.906,-1.918 -1.558,-1.918 h -1.036 z m 0.951,-2.297 h 0.782 c 1.496,0 1.971,-0.814 1.971,-2.146 0,-2.102 -1.421,-2.122 -2.049,-2.122 H 80.46 v 4.244 z m -24.86,3.866 h 1.271 c 1.712,0 1.712,-1.999 1.712,-4.274 C 59.534,-5.821 59.238,-7 57.74,-7 H 56.551 Z M 53.434,-8.876 h 4.674 c 4.903,0 4.581,4.341 4.581,6.238 0,3.846 -0.705,6.101 -4.469,6.101 h -4.786 z m 15.208,1.507 c -1.402,0 -1.583,1.384 -1.583,4.584 0,3.202 0.181,4.588 1.583,4.588 1.401,0 1.582,-1.386 1.582,-4.588 0,-3.2 -0.181,-4.584 -1.582,-4.584 m 0,-1.869 c 4.791,0 4.791,3.184 4.791,6.453 0,3.306 0,6.456 -4.791,6.456 -4.791,0 -4.791,-3.15 -4.791,-6.456 0,-3.269 0,-6.453 4.791,-6.453 m 35.726,4.972 h -2.371 l 1.132,5.034 z m 8.698,-4.61 c 2.06,0 4.147,0.274 4.147,3.46 0,3.677 -5.33,3.312 -5.33,5.645 0,0.851 0.519,1.313 1.397,1.313 h 2.853 v 1.892 h -4.01 c -3.295,0 -4.109,-1.487 -4.109,-3.412 0,-3.662 5.906,-3.575 5.906,-5.635 0,-0.836 -0.446,-1.398 -1.361,-1.398 h -4.225 l -3.135,10.437 h -3.749 l -3.468,-11.197 -2.176,4.814 c 1.595,0.298 2.23,1.307 2.234,3.163 0.008,2.096 -1.243,3.22 -3.185,3.22 H 88.988 V -8.875 h 3.208 v 10.41 h 1.062 c 0.908,0 1.693,-0.66 1.693,-1.868 0,-1.027 -0.512,-1.869 -1.337,-1.815 l -0.892,-0.013 2.919,-6.714 h 5.129 l 0.77,2.725 h 3.321 l 0.755,-2.725 z M 2.365,-8.877 c 1.473,0 5.134,0.165 5.134,3.974 0,2.061 -0.644,3.499 -3.107,3.813 1.886,0.373 2.834,1.621 2.834,3.348 0,3.206 -2.189,3.894 -4.839,3.894 H -3.785 V -8.877 Z"
       style="fill:#465eff;fill-opacity:1;fill-rule:nonzero;stroke:none"
       transform="matrix(1.3333333,0,0,-1.3333333,870.12493,338.21507)"
       clip-path="url(#clipPath42)" />
  </g>
</svg>
