<svg xmlns="http://www.w3.org/2000/svg" viewBox="0 0 512 512">
  <path fill="#AF7AAE" d="M460.8 439.242H158.989l-21.558-247.916h344.926L460.8 439.242z"/>
  <path fill="#8E5B8E" d="M482.358 169.768v21.558l-1.874 21.558H139.306l-1.874-21.558v-21.558h344.926z"/>
  <path fill="#D199D1" d="M503.916 148.211v21.558c0 11.906-9.651 21.558-21.558 21.558H137.432c-11.906 0-21.558-9.651-21.558-21.558v-21.558c0-11.906 9.651-21.558 21.558-21.558h344.926c11.906 0 21.558 9.651 21.558 21.558z"/>
  <path fill="#A7E5CB" d="M471.579 428.463c0 17.859-14.477 32.337-32.337 32.337h-66.521c1.192 3.372 1.847 6.999 1.847 10.779 0 17.859-14.477 32.337-32.337 32.337H40.421c-17.86 0-32.337-14.478-32.337-32.337 0-17.859 14.477-32.337 32.337-32.337h66.521c-1.192-3.372-1.848-6.999-1.848-10.779 0-17.859 14.477-32.337 32.337-32.337h301.811c17.86 0 32.337 14.479 32.337 32.337zM383.222 158.886c4.731.46 9.165-.638 12.905-2.804v45.507c0 11.69 9.09 21.645 20.772 22.06 12.264.437 22.344-9.377 22.344-21.544v-75.453c0-5.953-4.826-10.779-10.779-10.779h-53.895c-5.953 0-10.779 4.826-10.779 10.779v10.289c-.001 11.175 8.31 20.863 19.432 21.945z"/>
  <path fill="#D7F3FF" d="M180.547 428.463c0 5.953-4.826 10.779-10.779 10.779h-32.337c-5.953 0-10.779-4.826-10.779-10.779s4.826-10.779 10.779-10.779h32.337c5.954 0 10.779 4.826 10.779 10.779zM126.653 460.8H40.421c-5.953 0-10.779 4.826-10.779 10.779s4.826 10.779 10.779 10.779h86.232c5.953 0 10.779-4.826 10.779-10.779S132.606 460.8 126.653 460.8z"/>
  <path fill="#A89B80" d="M353.01 374.568h64.674c47.625 0 86.232 38.607 86.232 86.232v32.337c0 5.953-4.826 10.779-10.779 10.779h-204.8c-47.625 0-86.232-38.607-86.232-86.232v-75.453c0-11.906 9.651-21.558 21.558-21.558h86.232c11.906 0 21.558 9.651 21.558 21.558v10.779c0 11.907 9.651 21.558 21.557 21.558z"/>
  <path fill="#C1B291" d="M503.916 460.8v43.116H331.453c-47.625 0-86.232-38.607-86.232-86.232v-75.453c0-11.906 9.651-21.558 21.558-21.558h43.116c11.906 0 21.558 9.651 21.558 21.558v10.779c0 11.906 9.651 21.558 21.558 21.558h64.674c47.625 0 86.231 38.607 86.231 86.232z"/>
  <path fill="#A89B80" d="M503.916 460.8v43.116H374.568c-47.625 0-86.232-38.607-86.232-86.232v-43.116c0 47.625 38.607 86.232 86.232 86.232h129.348z"/>
  <path fill="#DBCBA1" d="M492.351 417.684H374.568c-47.625 0-86.232-38.607-86.232-86.232v-10.779h21.558c11.906 0 21.558 9.651 21.558 21.558v10.779c0 11.906 9.651 21.558 21.558 21.558h64.674c11.912 0 39.755 17.349 54.667 43.116z"/>
  <path fill="#91F18B" d="M288.337 29.642v258.695h-43.116V29.642c0-11.906 9.651-21.558 21.558-21.558 11.906 0 21.558 9.652 21.558 21.558z"/>
  <path fill="#6BAF6E" d="M266.779 29.642v258.695h-21.558V29.642c0-11.906 9.651-21.558 21.558-21.558 3.931 0 7.606 1.069 10.779 2.907-6.437 3.73-10.779 10.677-10.779 18.651z"/>
  <path fill="#FFC248" d="M342.232 309.895c0 11.906-9.651 21.558-21.558 21.558H212.884c-11.906 0-21.558-9.651-21.558-21.558 0-11.906 9.651-21.558 21.558-21.558h21.558v-10.779c0-5.953 4.826-10.779 10.779-10.779h43.116c5.953 0 10.779 4.826 10.779 10.779v10.779h21.558c11.906 0 21.558 9.651 21.558 21.558z"/>
  <path fill="#FFFF63" d="M342.232 309.895H191.326c0-11.906 9.651-21.558 21.558-21.558h107.789c11.907 0 21.559 9.651 21.559 21.558z"/>
  <path d="M220.968 503.916c0 4.466-3.62 8.084-8.084 8.084H40.421C18.132 512 0 493.868 0 471.579c0-22.289 18.132-40.421 40.421-40.421h54.271c.61 0 1.137-.219 1.568-.651.282-.284.755-.907.751-1.903v-.141c0-22.289 18.132-40.421 40.421-40.421h32.337c4.465 0 8.084 3.618 8.084 8.084 0 4.466-3.62 8.084-8.084 8.084h-32.337c-13.373 0-24.253 10.88-24.253 24.253v.113c.018 5.039-1.924 9.787-5.467 13.343-3.474 3.486-8.098 5.407-13.021 5.407H40.421c-13.373 0-24.253 10.88-24.253 24.253s10.879 24.253 24.253 24.253h172.463c4.465 0 8.084 3.618 8.084 8.084zM363.789 199.411c4.465 0 8.084-3.618 8.084-8.084s-3.62-8.084-8.084-8.084h-43.116c-4.465 0-8.084 3.618-8.084 8.084s3.62 8.084 8.084 8.084h43.116zM499.548 413.998C507.467 427.798 512 443.78 512 460.8v32.337c0 10.401-8.463 18.863-18.863 18.863h-204.8c-52.006 0-94.316-42.31-94.316-94.316v-75.453c0-2.895.424-5.763 1.246-8.511-7.291-5.406-12.025-14.073-12.025-23.826 0-16.344 13.297-29.642 29.642-29.642h13.474v-2.695c0-7.511 4.411-14.009 10.779-17.043v-61.105H146.25l14.233 163.679c.387 4.447-2.905 8.368-7.353 8.754-4.452.406-8.368-2.904-8.755-7.353l-14.438-166.039c-12.727-3.33-22.146-14.927-22.146-28.683v-21.558c0-16.344 13.297-29.642 29.642-29.642h99.705V29.642C237.137 13.298 250.434 0 266.779 0s29.642 13.298 29.642 29.642v230.873c6.368 3.032 10.779 9.532 10.779 17.043v2.695h13.474c16.345 0 29.642 13.298 29.642 29.642 0 9.753-4.734 18.42-12.025 23.826.822 2.749 1.246 5.617 1.246 8.511v10.779c0 7.43 6.044 13.474 13.474 13.474h64.674c34.691 0 65.067 18.827 81.449 46.799.124.23.263.468.389.714zM253.305 258.695h26.947V29.642c0-7.43-6.044-13.474-13.474-13.474s-13.474 6.044-13.474 13.474v229.053zM237.137 183.242v-48.505h-99.705c-7.43 0-13.474 6.044-13.474 13.474v21.558c0 7.409 6.011 13.44 13.412 13.474.051.001.103.001.155 0h99.612zM495.832 468.884H374.568c-15.993 0-31.796-4.078-45.699-11.793-3.904-2.165-5.313-7.086-3.146-10.99 2.167-3.903 7.086-5.315 10.991-3.147 11.511 6.388 24.601 9.764 37.856 9.764h120.848c-.991-9.6-3.727-18.692-7.885-26.947H374.568c-15.994 0-31.798-4.079-45.704-11.795-3.904-2.167-5.313-7.087-3.146-10.99 2.165-3.905 7.087-5.312 10.991-3.146 11.512 6.388 24.603 9.765 37.859 9.765h102.108c-14.339-16.498-35.469-26.947-58.992-26.947H353.01c-16.345 0-29.642-13.298-29.642-29.642v-10.779c0-.942-.098-1.878-.291-2.792-.793.065-1.595.097-2.404.097h-10.779c-4.465 0-8.084-3.618-8.084-8.084s3.62-8.084 8.084-8.084h10.779c7.43 0 13.474-6.044 13.474-13.474s-6.044-13.474-13.474-13.474h-21.558c-4.465 0-8.084-3.618-8.084-8.084V277.56c0-1.486-1.209-2.695-2.695-2.695h-43.116c-1.485 0-2.695 1.208-2.695 2.695v10.779c0 4.466-3.62 8.084-8.084 8.084h-21.558c-7.43 0-13.474 6.044-13.474 13.474s6.044 13.474 13.474 13.474h64.674c4.465 0 8.084 3.618 8.084 8.084s-3.62 8.084-8.084 8.084h-64.674c-.808 0-1.611-.032-2.404-.097-.192.914-.291 1.85-.291 2.792v75.453c0 39.461 29.402 72.186 67.447 77.418-24.463-17.059-40.5-45.402-40.5-77.42v-53.895c0-4.466 3.62-8.084 8.084-8.084 4.465 0 8.084 3.618 8.084 8.084v53.895c0 39.461 29.402 72.186 67.447 77.418-24.463-17.057-40.5-45.4-40.5-77.418v-53.895c0-4.466 3.62-8.084 8.084-8.084s8.084 3.618 8.084 8.084v53.895c0 43.091 35.056 78.147 78.147 78.147h118.568c1.485 0 2.695-1.208 2.695-2.695v-24.253zM512 148.211v21.558c0 13.756-9.42 25.353-22.146 28.682l-14.438 166.04c-.365 4.209-3.897 7.385-8.044 7.385-.235 0-.472-.01-.71-.03-4.447-.386-7.74-4.306-7.353-8.754l14.233-163.68h-26.213v2.695c0 8.118-3.217 15.693-9.059 21.33-5.841 5.636-13.546 8.564-21.656 8.292-16.021-.57-28.57-13.809-28.57-30.139v-34.637c-1.85.169-3.723.164-5.602-.019-15.243-1.484-26.735-14.378-26.735-29.991v-2.204h-35.032c-4.465 0-8.084-3.618-8.084-8.084 0-4.466 3.62-8.084 8.084-8.084h36.853c3.032-6.367 9.532-10.779 17.042-10.779h53.895c7.51 0 14.009 4.412 17.042 10.779h36.853C498.703 118.568 512 131.866 512 148.211zm-80.842-21.558c0-1.486-1.209-2.695-2.695-2.695h-53.895c-1.485 0-2.695 1.208-2.695 2.695v10.289c0 7.131 5.329 13.237 12.132 13.899 2.823.276 5.614-.332 8.069-1.754 1.253-.725 2.652-1.089 4.051-1.089 1.394 0 2.787.36 4.038 1.08 2.504 1.444 4.046 4.113 4.046 7.004v45.507c0 7.455 5.821 13.727 12.975 13.982 3.706.106 7.2-1.207 9.854-3.768 2.656-2.563 4.119-6.007 4.119-9.697v-75.454zm64.674 21.558c0-7.43-6.044-13.474-13.474-13.474h-35.032v48.505h34.938c.053 0 .103 0 .155 0 7.402-.033 13.412-6.064 13.412-13.474v-21.557z"/>
</svg>
